# xmcd
#
# Track frame offsets:
#	150
#	27003
#	77592
#	84512
#	90282
#	103244
#	109427
#	119752
#	127952
#	131507
#	138797
#	140710
#	149131
#	154043
#	156655
#	169168
#	183277
#	188133
#	199765
#	215163
#	222821
#	234999
#	244811
#	250820
#	256680
#	264264
#
# Disc length: 3665 seconds
#
# Revision: 0
# Processed by: cddbd v1.5.2PL0 Copyright (c) Steve Scherf et al.
# Submitted via: EZCDAudioConverter 3.1.4.1
#
DISCID=790e4f1a
DTITLE=Bernstein by Alexandre Dossin - Thirteen Anniversaries, Piano Sonata, S
DTITLE=even Anniversaries, Music for the Dance No. 2, Non  Troppo Presto
DYEAR=1900
DGENRE=piano
TTITLE0=Sonata for the Piano (1938) 1. Movement I
TTITLE1=Sonata for the Piano (1938) 2. Movement II
TTITLE2=Seven Anniversaries (1943) 1. For Aaron Copland
TTITLE3=Seven Anniversaries (1943) 2. For My Sister, Shirley
TTITLE4=Seven Anniversaries (1943) 3. In Memoriam: Alfred Eisner
TTITLE5=Seven Anniversaries (1943) 4. For Paul Bowles
TTITLE6=Seven Anniversaries (1943) 5. In Memoriam: Nathalie Koussevitzky
TTITLE7=Seven Anniversaries (1943) 6. For Sergei Koussevitzky
TTITLE8=Seven Anniversaries (1943) 7. For William Schuman
TTITLE9=Thirteen Anniversaries (1988) 1. For Shirley Gabis Rhoads Perle
TTITLE10=Thirteen Anniversaries (1988) 2. In Memoriam: William Kapell
TTITLE11=Thirteen Anniversaries (1988) 3. For Stephen Sondheim
TTITLE12=Thirteen Anniversaries (1988) 4. For Craig Urquhart
TTITLE13=Thirteen Anniversaries (1988) 5. For Leo Smit
TTITLE14=Thirteen Anniversaries (1988) 6. For My Daughter, Nina
TTITLE15=Thirteen Anniversaries (1988) 7. In Memoriam: Helen Coates
TTITLE16=Thirteen Anniversaries (1988) 8. In Memoriam: Goddard Lieberson
TTITLE17=Thirteen Anniversaries (1988) 9. For Jessica Fleischman
TTITLE18=Thirteen Anniversaries (1988) 10. In Memoriam: Constance Hope
TTITLE19=Thirteen Anniversaries (1988) 11. For Felicia, On Our 28th Birthday (
TTITLE19=& Her 52nd) 
TTITLE20=Thirteen Anniversaries (1988) 12. For Aaron Stern
TTITLE21=Thirteen Anniversaries (1988) 13. In Memoriam: Helen Goetz
TTITLE22=Music for the Dance No. II (1938) 1. Movement I
TTITLE23=Music for the Dance No. II (1938) 2. Movement II
TTITLE24=Music for the Dance No. II (1938) 3. Movement III
TTITLE25=Non Troppo Presto (1937) 
EXTD=
EXTT0=
EXTT1=
EXTT2=
EXTT3=
EXTT4=
EXTT5=
EXTT6=
EXTT7=
EXTT8=
EXTT9=
EXTT10=
EXTT11=
EXTT12=
EXTT13=
EXTT14=
EXTT15=
EXTT16=
EXTT17=
EXTT18=
EXTT19=
EXTT20=
EXTT21=
EXTT22=
EXTT23=
EXTT24=
EXTT25=
PLAYORDER=
